<?xml version="1.0" encoding="UTF-8"?>
<svg id="Camada_1" xmlns="http://www.w3.org/2000/svg" version="1.1" viewBox="0 0 1080 1080">
  <!-- Generator: Adobe Illustrator 29.2.1, SVG Export Plug-In . SVG Version: 2.1.0 Build 116)  -->
  <defs>
    <style>
      .st0 {
        font-family: AGRESSIVE, AGRESSIVE;
        font-size: 149.46px;
      }

      .st1 {
        fill: #04d462;
      }

      .st2 {
        fill: none;
        stroke: #222;
        stroke-linecap: round;
        stroke-linejoin: round;
        stroke-width: 30px;
      }

      .st3 {
        fill: #222;
      }
    </style>
  </defs>
  <text class="st0" transform="translate(488.52 524.48)"><tspan class="st3"><tspan x="0" y="0">big</tspan></tspan><tspan class="st1"><tspan x="0" y="127.37">day</tspan></tspan></text>
  <g>
    <path class="st1" d="M460.29,468.24v153.73c-.56,27.09-24.63,51.55-52,52.51h-154.49c-9.31-.05-18.42-3.58-26.16-8.62-14.82-9.66-25.57-26.58-25.72-44.51v-151.23c.03-16.82,8.99-32.8,22.36-42.74,2.1-1.57,8.36-5.91,10.57-6.1.25-.02.51,0,.77.02.64-.31.75.03.79.65.04,49.67.03,99.39-.03,149.16.85,20.47,6.44,42.41,22.47,56.22,12.3,10.59,29.04,14.72,45.06,13.6,11.32-.03,22.64.15,33.96.54,22.34.38,46.62-.55,65.15-14.55,23.67-17.87,30.21-49.27,30.19-77.48-.02-26.54-5.8-55.15-26.46-73.44-13.35-11.81-30.68-17.01-48.34-17.6-28.65.1-57.28.05-85.91-.16l-.3-.51v-41.17s.51-.31.51-.31c44.13-.28,88.27-.37,132.41-.26,19.52-.23,38.03,11.52,47.92,28.06,4.37,7.31,7.32,15.61,7.23,24.2Z"/>
    <path class="st3" d="M272.74,416.24v41.65s85.71-.01,85.71-.01c47.77,1.84,71.63,33.62,74.83,79.15,1.76,25-1.16,54.52-15.84,75.53-28.1,40.22-78.31,26.71-120.35,29.11-41.82-1.97-59.57-31.68-61.2-70.57-.47-49.47.61-98.97,0-148.43,0-.43.16-1.12-.26-1.38,13.19-5.97,23.05-5.11,37.11-5.05Z"/>
    <path class="st1" d="M272.73,493.48h81.93c32.01,1.44,40.37,22.56,41.51,51.12,1.22,30.5-4.66,59.41-40.76,61.23-15.26-.57-31.02.73-46.22,0-25.87-1.23-35.48-15.32-36.48-40.01v-72.33Z"/>
  </g>
  <polyline class="st2" points="307.92 531.36 338.91 572.56 436.61 494.09"/>
</svg>