<?xml version="1.0" encoding="UTF-8"?>
<svg id="Camada_1" xmlns="http://www.w3.org/2000/svg" version="1.1" viewBox="0 0 24 24">
  <!-- Generator: Adobe Illustrator 29.3.1, SVG Export Plug-In . SVG Version: 2.1.0 Build 151)  -->
  <defs>
    <style>
      .st0 {
        fill: #4285f4;
      }

      .st1 {
        fill: #fbbc02;
      }

      .st2 {
        fill: #34a853;
      }

      .st3 {
        fill: #ea4335;
      }
    </style>
  </defs>
  <path class="st0" d="M19.53,20.38c2.61-2.44,3.77-6.5,3.08-10.39h-10.39v4.3h5.92c-.23,1.39-1.04,2.55-2.21,3.31l3.6,2.79Z"/>
  <path class="st2" d="M2.35,16.95c2.79,5.49,9.5,7.68,14.98,4.89.79-.4,1.53-.89,2.2-1.47l-3.6-2.79c-3.08,2.03-8.19,1.28-9.93-3.48l-3.66,2.84Z"/>
  <path class="st1" d="M6.01,14.11c-.46-1.45-.46-2.79,0-4.24l-3.66-2.84c-1.34,2.67-1.74,6.44,0,9.93l3.66-2.84Z"/>
  <path class="st3" d="M6.01,9.87c1.28-4.01,6.73-6.33,10.39-2.9l3.19-3.13C15.06-.52,6.24-.34,2.35,7.03l3.66,2.84Z"/>
</svg>