<?xml version="1.0" encoding="UTF-8"?>
<svg id="Camada_1" data-name="Camada 1" xmlns="http://www.w3.org/2000/svg" viewBox="0 0 676.16 258.54">
  <defs>
    <style>
      .cls-1 {
        fill: #04d462;
      }

      .cls-2 {
        isolation: isolate;
      }

      .cls-3 {
        fill: none;
        stroke: #222;
        stroke-linecap: round;
        stroke-linejoin: round;
        stroke-width: 30px;
      }

      .cls-4 {
        fill: #222;
      }
    </style>
  </defs>
  <g>
    <path class="cls-4" d="M304.63,6.88h81.08c9.97,0,17.22.8,21.75,2.41,3.02,1.02,5.5,2.12,7.44,3.28,4.57,2.73,7.81,6.37,9.71,10.95,1.51,3.79,2.26,7.95,2.26,12.48,0,6.86-2.02,12.33-6.06,16.42-1.61,1.61-2.8,2.63-3.58,3.06-1.17.83-2.21,1.44-3.14,1.83-.58.24-.88.39-.88.44,1.02.39,2.24,1.02,3.65,1.9.88.58,2,1.48,3.36,2.7,1.46,1.56,2.51,2.85,3.14,3.87,2.34,3.65,3.5,8.08,3.5,13.28s-1.07,10.29-3.21,14.52c-.68,1.22-1.66,2.58-2.92,4.09-1.8,1.8-3.04,2.92-3.72,3.36-1.22.88-2.65,1.73-4.3,2.55-2.04,1.02-4.6,1.97-7.66,2.85-4.33,1.12-11.12,1.68-20.36,1.68h-79.84c-2.58,0-4.89-1.02-6.93-3.07-.97-1.07-1.68-2.21-2.12-3.43-.34-.92-.51-2.29-.51-4.09V17.53c0-2.14.24-3.72.73-4.74,1.02-2.29,2.63-3.94,4.82-4.96,1.31-.63,2.58-.95,3.79-.95ZM321.78,30.74v17.15c46.22-.29,69.33-.46,69.33-.51,1.41-.15,2.5-.34,3.28-.58,2.53-.78,4.38-1.99,5.55-3.65.78-1.22,1.17-2.5,1.17-3.87v-.22c0-2.29-1.05-4.35-3.14-6.2-1.31-1.12-3.16-1.92-5.55-2.41-.92-.15-1.7-.22-2.33-.22-3.6,0-26.37.17-68.31.51ZM321.78,68.4v18.54l65.54-.51c3.02,0,5.57-.73,7.66-2.19,1.61-1.17,2.7-2.67,3.28-4.52.19-.83.29-1.56.29-2.19v-.37c0-2.38-1-4.55-2.99-6.5-1.27-1.12-2.99-1.95-5.18-2.48-1.12-.19-2-.29-2.63-.29-41.79.34-63.78.51-65.97.51Z"/>
    <path class="cls-4" d="M445.26,6.88h21.38c3.84,0,6.76,1.65,8.76,4.96.83,1.41,1.24,3.16,1.24,5.25v91.44h-21.97c-2.38,0-4.62-1-6.71-2.99-1.8-1.85-2.7-4.18-2.7-7.01V6.88Z"/>
    <path class="cls-4" d="M534.73,6.88h78.16c3.89,0,6.83,1.8,8.83,5.4.68,1.36,1.02,2.87,1.02,4.52v16.42h-87.72c-5.5,0-10.07,2.29-13.72,6.86-2.29,3.11-3.43,6.45-3.43,10v15.25c0,4.33,1.58,8.22,4.74,11.68,1.31,1.17,2.46,2.07,3.43,2.7,1.17.68,2.26,1.22,3.28,1.61,2.04.63,3.6.95,4.67.95h57.51v-12.55h-43.28v-11.97c0-2.72.53-4.72,1.61-5.98,1.07-1.95,2.87-3.36,5.4-4.23.92-.19,1.78-.29,2.55-.29h64.81v51.89c0,2.68-1.19,5.11-3.58,7.3-1.85,1.41-3.89,2.12-6.13,2.12h-78.31c-8.81,0-17.12-2.7-24.96-8.1-1.41-1.07-3.09-2.5-5.04-4.31-1.95-1.99-3.46-3.7-4.52-5.11-5.69-7.78-8.54-16.54-8.54-26.27v-14.08c0-12.07,4.35-22.53,13.06-31.38,2.82-2.53,5.01-4.26,6.57-5.18,1.9-1.26,3.89-2.36,5.98-3.28,5.74-2.63,11.6-3.94,17.59-3.94Z"/>
  </g>
  <g class="cls-2">
    <path class="cls-1" d="M304.33,134.25h78.6c9.39,0,18,2.85,25.83,8.54,1.22.88,2.87,2.26,4.96,4.16,2.38,2.58,4.01,4.52,4.89,5.84,1.7,2.53,3.16,5.13,4.38,7.81.34.92.71,1.97,1.1,3.14.24.78.51,1.58.8,2.41,1.02,3.6,1.53,7.74,1.53,12.41v13.43c0,9.39-2.55,17.76-7.66,25.1-.88,1.36-2.41,3.26-4.6,5.69-2.09,2-3.89,3.53-5.4,4.6-1.61,1.17-3.31,2.26-5.11,3.28-6.47,3.5-13.43,5.25-20.87,5.25h-78.01c-2.38,0-4.52-.9-6.42-2.7-1.22-1.31-1.97-2.41-2.26-3.28-.15-.29-.29-.73-.44-1.31h-.44v-84.44c0-3.6,1.58-6.45,4.74-8.54,1.7-.92,3.16-1.39,4.38-1.39ZM321.48,160.59v49.04h61.74c4.18,0,7.91-1.51,11.17-4.52,1.46-1.41,2.31-2.36,2.55-2.85,2.09-3.02,3.14-6.1,3.14-9.27v-15.84c0-3.6-1.24-6.98-3.72-10.14-1.36-1.56-2.51-2.65-3.43-3.28-1.22-.83-2.41-1.48-3.58-1.97-2.04-.78-4.33-1.17-6.86-1.17h-61.01Z"/>
    <path class="cls-1" d="M491.38,134.25h21.38c4.33,0,7.96,1.8,10.88,5.4.78,1.07,1.75,2.73,2.92,4.96.19.29.37.58.51.88.44.68,4.18,7.25,11.24,19.7,1.99,3.55,4.28,7.59,6.86,12.11,16.01,28.27,24.23,42.72,24.67,43.35l8.54,15.25h-22.48c-5.94,0-10.31-2.8-13.14-8.39-2-3.41-3.46-5.94-4.38-7.59-.78-1.41-1.22-2.16-1.31-2.26h-69.77c-.1,0-.21.05-.33.15-.12.1-.21.29-.26.58l-6.57,11.53c-2.97,3.99-6.91,5.98-11.82,5.98h-22.26c-.1,0-.15-.01-.15-.04v-.11c10.75-19.02,20.12-35.52,28.1-49.48,6.32-11.14,11.43-20.14,15.33-27,6.03-10.66,9.2-16.2,9.49-16.64.78-1.46,1.61-2.75,2.48-3.87,2.82-3.02,6.18-4.52,10.07-4.52ZM502.11,155.92l-22.84,40.21h45.68c-14.94-26.17-22.55-39.58-22.84-40.21Z"/>
    <path class="cls-1" d="M572.46,134.25c2.53,0,4.52.51,5.98,1.53,1.02.63,2.16,1.78,3.43,3.43l4.38,5.69c2.87,3.84,6.17,8.26,9.89,13.25,3.72,4.99,7.04,9.44,9.96,13.36,2.92,3.92,4.55,6.14,4.89,6.68l28.9-40.8c1.36-1.36,2.6-2.19,3.72-2.48.88-.44,2.21-.66,4.01-.66h28.53c-.44.63-3.25,4.32-8.43,11.06-5.18,6.74-11.14,14.47-17.88,23.21-6.74,8.73-12.71,16.48-17.92,23.24l-7.88,10.22v33.93h-17.66c-3.16,0-5.81-1.39-7.95-4.16-1.17-1.7-1.75-3.45-1.75-5.25v-24.67l-45.61-57.36c0-.15-2.63-3.55-7.88-10.22h29.26Z"/>
  </g>
  <g>
    <path class="cls-1" d="M258.37,52.3v153.73c-.56,27.09-24.63,51.55-52,52.51H51.88c-9.31-.05-18.42-3.58-26.16-8.62C10.9,240.26.15,223.34,0,205.41V54.18C.03,37.36,8.99,21.38,22.36,11.44c2.1-1.57,8.36-5.91,10.57-6.1.25-.02.51,0,.77.02.64-.31.75.03.79.65.04,49.67.03,99.39-.03,149.16.85,20.47,6.44,42.41,22.47,56.22,12.3,10.59,29.04,14.72,45.06,13.6,11.32-.03,22.64.15,33.96.54,22.34.38,46.62-.55,65.15-14.55,23.67-17.87,30.21-49.27,30.19-77.48-.02-26.54-5.8-55.15-26.46-73.44-13.35-11.81-30.68-17.01-48.34-17.6-28.65.1-57.28.05-85.91-.16l-.3-.51V.62l.51-.31C114.92.03,159.06-.06,203.2.05c19.52-.23,38.03,11.52,47.92,28.06,4.37,7.31,7.32,15.61,7.23,24.2h.02Z"/>
    <path class="cls-4" d="M70.82.3v41.65h85.71c47.77,1.83,71.63,33.61,74.83,79.14,1.76,25-1.16,54.52-15.84,75.53-28.1,40.22-78.31,26.71-120.35,29.11-41.82-1.97-59.57-31.68-61.2-70.57-.47-49.47.61-98.97,0-148.43,0-.43.16-1.12-.26-1.38C46.9-.62,56.76.24,70.82.3h0Z"/>
    <path class="cls-1" d="M70.81,77.54h81.93c32.01,1.44,40.37,22.56,41.51,51.12,1.22,30.5-4.66,59.41-40.76,61.23-15.26-.57-31.02.73-46.22,0-25.87-1.23-35.48-15.32-36.48-40.01v-72.33h.02Z"/>
  </g>
  <polyline class="cls-3" points="106 115.42 136.99 156.62 234.69 78.15"/>
</svg>