<?xml version="1.0" encoding="UTF-8"?>
<svg id="Camada_1" xmlns="http://www.w3.org/2000/svg" xmlns:xlink="http://www.w3.org/1999/xlink" version="1.1" viewBox="0 0 24 24">
  <!-- Generator: Adobe Illustrator 29.3.1, SVG Export Plug-In . SVG Version: 2.1.0 Build 151)  -->
  <defs>
    <style>
      .st0 {
        fill: none;
      }

      .st1 {
        clip-path: url(#clippath);
      }
    </style>
    <clipPath id="clippath">
      <rect class="st0" x="3.38" y="1.42" width="17.23" height="21.16"/>
    </clipPath>
  </defs>
  <g class="st1">
    <path id="B" d="M17.77,12.66c-.02-2.68,2.19-3.96,2.29-4.03-1.25-1.82-3.18-2.07-3.87-2.1-1.65-.17-3.21.97-4.05.97s-2.13-.95-3.49-.92c-1.8.03-3.45,1.04-4.38,2.65-1.87,3.23-.48,8.03,1.34,10.66.89,1.28,1.95,2.73,3.34,2.68,1.34-.05,1.85-.87,3.47-.87s2.08.87,3.49.84c1.44-.03,2.36-1.31,3.24-2.6,1.02-1.49,1.44-2.94,1.46-3.01-.03-.01-2.81-1.08-2.84-4.28"/>
  </g>
  <path d="M15.11,4.8c.74-.89,1.24-2.14,1.1-3.38-1.07.04-2.35.71-3.12,1.61-.68.79-1.28,2.06-1.12,3.27,1.18.09,2.4-.61,3.14-1.5"/>
</svg>