<?xml version="1.0" encoding="UTF-8"?>
<svg id="Camada_1" data-name="Camada 1" xmlns="http://www.w3.org/2000/svg" viewBox="0 0 258.37 258.54">
  <defs>
    <style>
      .cls-1 {
        fill: #04d462;
      }

      .cls-2 {
        fill: none;
        stroke: #222;
        stroke-linecap: round;
        stroke-linejoin: round;
        stroke-width: 30px;
      }

      .cls-3 {
        fill: #222;
      }
    </style>
  </defs>
  <g>
    <path class="cls-1" d="M258.37,52.3v153.73c-.56,27.09-24.63,51.55-52,52.51H51.88c-9.31-.05-18.42-3.58-26.16-8.62C10.9,240.26.15,223.34,0,205.41V54.18C.03,37.36,8.99,21.38,22.36,11.44c2.1-1.57,8.36-5.91,10.57-6.1.25-.02.51,0,.77.02.64-.31.75.03.79.65.04,49.67.03,99.39-.03,149.16.85,20.47,6.44,42.41,22.47,56.22,12.3,10.59,29.04,14.72,45.06,13.6,11.32-.03,22.64.15,33.96.54,22.34.38,46.62-.55,65.15-14.55,23.67-17.87,30.21-49.27,30.19-77.48-.02-26.54-5.8-55.15-26.46-73.44-13.35-11.81-30.68-17.01-48.34-17.6-28.65.1-57.28.05-85.91-.16l-.3-.51V.62l.51-.31C114.92.03,159.06-.06,203.2.05c19.52-.23,38.03,11.52,47.92,28.06,4.37,7.31,7.32,15.61,7.23,24.2h.02Z"/>
    <path class="cls-3" d="M70.82.3v41.65h85.71c47.77,1.83,71.63,33.61,74.83,79.14,1.76,25-1.16,54.52-15.84,75.53-28.1,40.22-78.31,26.71-120.35,29.11-41.82-1.97-59.57-31.68-61.2-70.57-.47-49.47.61-98.97,0-148.43,0-.43.16-1.12-.26-1.38C46.9-.62,56.76.24,70.82.3h0Z"/>
    <path class="cls-1" d="M70.81,77.54h81.93c32.01,1.44,40.37,22.56,41.51,51.12,1.22,30.5-4.66,59.41-40.76,61.23-15.26-.57-31.02.73-46.22,0-25.87-1.23-35.48-15.32-36.48-40.01v-72.33h.02Z"/>
  </g>
  <polyline class="cls-2" points="106 115.42 136.99 156.62 234.69 78.15"/>
</svg>